<mxfile host="65bd71144e">
    <diagram name="Cat_1" id="0cNxYirCoF3FAIngxuJC">
        <mxGraphModel dx="288" dy="828" grid="1" gridSize="10" guides="1" tooltips="1" connect="1" arrows="1" fold="1" page="1" pageScale="1" pageWidth="827" pageHeight="1169" math="0" shadow="0">
            <root>
                <mxCell id="2RfNIHYXHJ-OlTvXYvh6-0"/>
                <mxCell id="2RfNIHYXHJ-OlTvXYvh6-1" parent="2RfNIHYXHJ-OlTvXYvh6-0"/>
                <mxCell id="2RfNIHYXHJ-OlTvXYvh6-2" value="Cat" style="swimlane;fontStyle=1;align=center;verticalAlign=top;childLayout=stackLayout;horizontal=1;startSize=26;horizontalStack=0;resizeParent=1;resizeParentMax=0;resizeLast=0;collapsible=1;marginBottom=0;" parent="2RfNIHYXHJ-OlTvXYvh6-1" vertex="1">
                    <mxGeometry x="280" y="80" width="210" height="164" as="geometry">
                        <mxRectangle x="500" y="110" width="100" height="26" as="alternateBounds"/>
                    </mxGeometry>
                </mxCell>
                <mxCell id="2RfNIHYXHJ-OlTvXYvh6-3" value="- name: String" style="text;strokeColor=none;fillColor=none;align=left;verticalAlign=top;spacingLeft=4;spacingRight=4;overflow=hidden;rotatable=0;points=[[0,0.5],[1,0.5]];portConstraint=eastwest;" parent="2RfNIHYXHJ-OlTvXYvh6-2" vertex="1">
                    <mxGeometry y="26" width="210" height="26" as="geometry"/>
                </mxCell>
                <mxCell id="2RfNIHYXHJ-OlTvXYvh6-4" value="- furColor: String" style="text;strokeColor=none;fillColor=none;align=left;verticalAlign=top;spacingLeft=4;spacingRight=4;overflow=hidden;rotatable=0;points=[[0,0.5],[1,0.5]];portConstraint=eastwest;" parent="2RfNIHYXHJ-OlTvXYvh6-2" vertex="1">
                    <mxGeometry y="52" width="210" height="26" as="geometry"/>
                </mxCell>
                <mxCell id="2RfNIHYXHJ-OlTvXYvh6-5" value="- age: int" style="text;strokeColor=none;fillColor=none;align=left;verticalAlign=top;spacingLeft=4;spacingRight=4;overflow=hidden;rotatable=0;points=[[0,0.5],[1,0.5]];portConstraint=eastwest;" parent="2RfNIHYXHJ-OlTvXYvh6-2" vertex="1">
                    <mxGeometry y="78" width="210" height="26" as="geometry"/>
                </mxCell>
                <mxCell id="2RfNIHYXHJ-OlTvXYvh6-6" value="" style="line;strokeWidth=1;fillColor=none;align=left;verticalAlign=middle;spacingTop=-1;spacingLeft=3;spacingRight=3;rotatable=0;labelPosition=right;points=[];portConstraint=eastwest;" parent="2RfNIHYXHJ-OlTvXYvh6-2" vertex="1">
                    <mxGeometry y="104" width="210" height="8" as="geometry"/>
                </mxCell>
                <mxCell id="2RfNIHYXHJ-OlTvXYvh6-7" value="+ getStringAttributes(String): String" style="text;strokeColor=none;fillColor=none;align=left;verticalAlign=top;spacingLeft=4;spacingRight=4;overflow=hidden;rotatable=0;points=[[0,0.5],[1,0.5]];portConstraint=eastwest;" parent="2RfNIHYXHJ-OlTvXYvh6-2" vertex="1">
                    <mxGeometry y="112" width="210" height="26" as="geometry"/>
                </mxCell>
                <mxCell id="2RfNIHYXHJ-OlTvXYvh6-9" value="+ getAge(): int" style="text;strokeColor=none;fillColor=none;align=left;verticalAlign=top;spacingLeft=4;spacingRight=4;overflow=hidden;rotatable=0;points=[[0,0.5],[1,0.5]];portConstraint=eastwest;" parent="2RfNIHYXHJ-OlTvXYvh6-2" vertex="1">
                    <mxGeometry y="138" width="210" height="26" as="geometry"/>
                </mxCell>
            </root>
        </mxGraphModel>
    </diagram>
    <diagram name="Cat_2" id="VcspGE5vew1SeJ2mj_Lw">
        <mxGraphModel dx="369" dy="828" grid="1" gridSize="10" guides="1" tooltips="1" connect="1" arrows="1" fold="1" page="1" pageScale="1" pageWidth="827" pageHeight="1169" math="0" shadow="0">
            <root>
                <mxCell id="qR23IGb5es-2u9HCgmln-0"/>
                <mxCell id="qR23IGb5es-2u9HCgmln-1" parent="qR23IGb5es-2u9HCgmln-0"/>
                <mxCell id="qR23IGb5es-2u9HCgmln-9" value="Cat" style="swimlane;fontStyle=1;align=center;verticalAlign=top;childLayout=stackLayout;horizontal=1;startSize=26;horizontalStack=0;resizeParent=1;resizeParentMax=0;resizeLast=0;collapsible=1;marginBottom=0;" vertex="1" parent="qR23IGb5es-2u9HCgmln-1">
                    <mxGeometry x="204" y="80" width="210" height="260" as="geometry">
                        <mxRectangle x="500" y="110" width="100" height="26" as="alternateBounds"/>
                    </mxGeometry>
                </mxCell>
                <mxCell id="qR23IGb5es-2u9HCgmln-10" value="- name: String" style="text;strokeColor=none;fillColor=none;align=left;verticalAlign=top;spacingLeft=4;spacingRight=4;overflow=hidden;rotatable=0;points=[[0,0.5],[1,0.5]];portConstraint=eastwest;" vertex="1" parent="qR23IGb5es-2u9HCgmln-9">
                    <mxGeometry y="26" width="210" height="26" as="geometry"/>
                </mxCell>
                <mxCell id="qR23IGb5es-2u9HCgmln-11" value="- furColor: String" style="text;strokeColor=none;fillColor=none;align=left;verticalAlign=top;spacingLeft=4;spacingRight=4;overflow=hidden;rotatable=0;points=[[0,0.5],[1,0.5]];portConstraint=eastwest;" vertex="1" parent="qR23IGb5es-2u9HCgmln-9">
                    <mxGeometry y="52" width="210" height="26" as="geometry"/>
                </mxCell>
                <mxCell id="qR23IGb5es-2u9HCgmln-12" value="- age: int&#10;&#10;- isFemale&#10;&#10;- counter : int" style="text;strokeColor=none;fillColor=none;align=left;verticalAlign=top;spacingLeft=4;spacingRight=4;overflow=hidden;rotatable=0;points=[[0,0.5],[1,0.5]];portConstraint=eastwest;" vertex="1" parent="qR23IGb5es-2u9HCgmln-9">
                    <mxGeometry y="78" width="210" height="82" as="geometry"/>
                </mxCell>
                <mxCell id="qR23IGb5es-2u9HCgmln-13" value="" style="line;strokeWidth=1;fillColor=none;align=left;verticalAlign=middle;spacingTop=-1;spacingLeft=3;spacingRight=3;rotatable=0;labelPosition=right;points=[];portConstraint=eastwest;" vertex="1" parent="qR23IGb5es-2u9HCgmln-9">
                    <mxGeometry y="160" width="210" height="8" as="geometry"/>
                </mxCell>
                <mxCell id="qR23IGb5es-2u9HCgmln-14" value="+ getStringAttributes(String): String" style="text;strokeColor=none;fillColor=none;align=left;verticalAlign=top;spacingLeft=4;spacingRight=4;overflow=hidden;rotatable=0;points=[[0,0.5],[1,0.5]];portConstraint=eastwest;" vertex="1" parent="qR23IGb5es-2u9HCgmln-9">
                    <mxGeometry y="168" width="210" height="26" as="geometry"/>
                </mxCell>
                <mxCell id="qR23IGb5es-2u9HCgmln-15" value="+ getAge(): int&#10;&#10;- checkEscalationLevel() : String" style="text;strokeColor=none;fillColor=none;align=left;verticalAlign=top;spacingLeft=4;spacingRight=4;overflow=hidden;rotatable=0;points=[[0,0.5],[1,0.5]];portConstraint=eastwest;" vertex="1" parent="qR23IGb5es-2u9HCgmln-9">
                    <mxGeometry y="194" width="210" height="66" as="geometry"/>
                </mxCell>
            </root>
        </mxGraphModel>
    </diagram>
</mxfile>